<svg xmlns="http://www.w3.org/2000/svg" version="1.1" xmlns:xlink="http://www.w3.org/1999/xlink" width="512" height="512" x="0" y="0" viewBox="0 0 32 32" style="enable-background:new 0 0 512 512" xml:space="preserve" class=""><g><path fill-rule="evenodd" d="M16 7.62a14.723 14.723 0 0 0-1.961 1.772A3.619 3.619 0 0 0 12.9 11.5v7.6h6.2v-7.6a3.619 3.619 0 0 0-1.139-2.108A14.71 14.71 0 0 0 16 7.62zm0 7.08a1.85 1.85 0 1 1 1.85-1.85A1.851 1.851 0 0 1 16 14.7z" fill="#ffffff" opacity="1" data-original="#000000" class=""></path><circle cx="16" cy="12.85" r=".85" fill="#ffffff" opacity="1" data-original="#000000" class=""></circle><path fill-rule="evenodd" d="M11.9 17.3v-2.681L9.744 17.3z" fill="#ffffff" opacity="1" data-original="#000000" class=""></path><path d="M13.8 20.1h4.4v1.7h-4.4z" fill="#ffffff" opacity="1" data-original="#000000" class=""></path><g fill-rule="evenodd"><path d="M20.1 17.3h2.156L20.1 14.619z" fill="#ffffff" opacity="1" data-original="#000000" class=""></path><path d="M16 1.5A14.5 14.5 0 1 0 30.5 16 14.507 14.507 0 0 0 16 1.5zM14.7 25a.5.5 0 0 1-1 0v-.9a.5.5 0 0 1 1 0zm1.8 0a.5.5 0 0 1-1 0v-.9a.5.5 0 0 1 1 0zm1.8 0a.5.5 0 0 1-1 0v-.9a.5.5 0 0 1 1 0zm5.451-6.984a.5.5 0 0 1-.451.284h-3.2v1.3a.5.5 0 0 1-.5.5h-.4v2.2a.5.5 0 0 1-.5.5h-5.4a.5.5 0 0 1-.5-.5v-2.2h-.4a.5.5 0 0 1-.5-.5v-1.3H8.7a.5.5 0 0 1-.39-.813l3.59-4.463V11.5a3.8 3.8 0 0 1 .877-2.147 14.986 14.986 0 0 1 2.937-2.763.5.5 0 0 1 .572 0 14.985 14.985 0 0 1 2.937 2.763A3.805 3.805 0 0 1 20.1 11.5v1.524l3.59 4.463a.5.5 0 0 1 .061.529z" fill="#ffffff" opacity="1" data-original="#000000" class=""></path></g></g></svg>